REM DIRINDEX 1\3,1\2\4,1\2\5,1\2\6
REM DIRNAME folder01,folder02,folder03,folder04,folder05,folder06
TITLE ""
FILE "096.mp3" MP3
  TRACK 01 AUDIO
    TITLE "0:"
    INDEX 01 00:00:00
  TRACK 02 AUDIO
    TITLE "4:cjc137_3951"
    INDEX 01 00:00:03
  TRACK 03 AUDIO
    TITLE "0:"
    INDEX 01 00:01:03
  TRACK 04 AUDIO
    TITLE "6:cjc137_3952"
    INDEX 01 00:01:17
  TRACK 05 AUDIO
    TITLE "0:"
    INDEX 01 00:02:18
  TRACK 06 AUDIO
    TITLE "5:cjc137_3953"
    INDEX 01 00:02:28
  TRACK 07 AUDIO
    TITLE "0:"
    INDEX 01 00:03:29
  TRACK 08 AUDIO
    TITLE "4:cjc137_3954"
    INDEX 01 00:04:38
  TRACK 09 AUDIO
    TITLE "0:"
    INDEX 01 00:05:40
  TRACK 10 AUDIO
    TITLE "6:cjc137_3955"
    INDEX 01 00:05:44
  TRACK 11 AUDIO
    TITLE "0:"
    INDEX 01 00:06:51
  TRACK 12 AUDIO
    TITLE "5:cjc137_3956"
    INDEX 01 00:06:57
  TRACK 13 AUDIO
    TITLE "0:"
    INDEX 01 00:07:58
  TRACK 14 AUDIO
    TITLE "4:cjc137_3957"
    INDEX 01 00:08:64
  TRACK 15 AUDIO
    TITLE "0:"
    INDEX 01 00:10:00
  TRACK 16 AUDIO
    TITLE "6:cjc137_3958"
    INDEX 01 00:10:12
  TRACK 17 AUDIO
    TITLE "0:"
    INDEX 01 00:11:39
  TRACK 18 AUDIO
    TITLE "5:cjc137_3959"
    INDEX 01 00:11:42
  TRACK 19 AUDIO
    TITLE "0:"
    INDEX 01 00:12:54
  TRACK 20 AUDIO
    TITLE "4:cjc137_3960"
    INDEX 01 00:13:63
  TRACK 21 AUDIO
    TITLE "0:"
    INDEX 01 00:15:07
  TRACK 22 AUDIO
    TITLE "6:cjc137_3961"
    INDEX 01 00:15:15
  TRACK 23 AUDIO
    TITLE "0:"
    INDEX 01 00:16:12
  TRACK 24 AUDIO
    TITLE "5:cjc137_3962"
    INDEX 01 00:16:16
  TRACK 25 AUDIO
    TITLE "0:"
    INDEX 01 00:17:37
  TRACK 26 AUDIO
    TITLE "4:cjc137_3963"
    INDEX 01 00:18:46
  TRACK 27 AUDIO
    TITLE "0:"
    INDEX 01 00:19:54
  TRACK 28 AUDIO
    TITLE "6:cjc137_3964"
    INDEX 01 00:19:62
  TRACK 29 AUDIO
    TITLE "0:"
    INDEX 01 00:21:04
  TRACK 30 AUDIO
    TITLE "5:cjc137_3965"
    INDEX 01 00:21:09
  TRACK 31 AUDIO
    TITLE "0:"
    INDEX 01 00:22:19
  TRACK 32 AUDIO
    TITLE "4:cjc137_3966"
    INDEX 01 00:23:30
  TRACK 33 AUDIO
    TITLE "0:"
    INDEX 01 00:24:57
  TRACK 34 AUDIO
    TITLE "6:cjc137_3967"
    INDEX 01 00:24:65
  TRACK 35 AUDIO
    TITLE "0:"
    INDEX 01 00:25:64
  TRACK 36 AUDIO
    TITLE "5:cjc137_3968"
    INDEX 01 00:25:72
  TRACK 37 AUDIO
    TITLE "0:"
    INDEX 01 00:27:24
  TRACK 38 AUDIO
    TITLE "4:cjc137_3969"
    INDEX 01 00:28:33
  TRACK 39 AUDIO
    TITLE "0:"
    INDEX 01 00:30:01
  TRACK 40 AUDIO
    TITLE "6:cjc137_3970"
    INDEX 01 00:30:08
  TRACK 41 AUDIO
    TITLE "0:"
    INDEX 01 00:31:16
  TRACK 42 AUDIO
    TITLE "5:cjc137_3971"
    INDEX 01 00:31:22
  TRACK 43 AUDIO
    TITLE "0:"
    INDEX 01 00:32:62
  TRACK 44 AUDIO
    TITLE "4:cjc137_3972"
    INDEX 01 00:33:71
  TRACK 45 AUDIO
    TITLE "0:"
    INDEX 01 00:35:06
  TRACK 46 AUDIO
    TITLE "6:cjc137_3973"
    INDEX 01 00:35:15
  TRACK 47 AUDIO
    TITLE "0:"
    INDEX 01 00:36:36
  TRACK 48 AUDIO
    TITLE "5:cjc137_3974"
    INDEX 01 00:36:40
  TRACK 49 AUDIO
    TITLE "0:"
    INDEX 01 00:37:52
  TRACK 50 AUDIO
    TITLE "4:cjc137_3975"
    INDEX 01 00:38:61
  TRACK 51 AUDIO
    TITLE "0:"
    INDEX 01 00:39:72
  TRACK 52 AUDIO
    TITLE "6:cjc137_3976"
    INDEX 01 00:40:09
  TRACK 53 AUDIO
    TITLE "0:"
    INDEX 01 00:41:40
  TRACK 54 AUDIO
    TITLE "5:cjc137_3977"
    INDEX 01 00:41:49
  TRACK 55 AUDIO
    TITLE "0:"
    INDEX 01 00:42:61
  TRACK 56 AUDIO
    TITLE "4:cjc137_3978"
    INDEX 01 00:43:72
  TRACK 57 AUDIO
    TITLE "0:"
    INDEX 01 00:45:12
  TRACK 58 AUDIO
    TITLE "6:cjc137_3979"
    INDEX 01 00:45:22
  TRACK 59 AUDIO
    TITLE "0:"
    INDEX 01 00:46:39
  TRACK 60 AUDIO
    TITLE "5:cjc137_3980"
    INDEX 01 00:46:49
  TRACK 61 AUDIO
    TITLE "0:"
    INDEX 01 00:47:64
  TRACK 62 AUDIO
    TITLE "4:cjc137_3981"
    INDEX 01 00:49:00
  TRACK 63 AUDIO
    TITLE "0:"
    INDEX 01 00:50:13
  TRACK 64 AUDIO
    TITLE "6:cjc137_3982"
    INDEX 01 00:50:23
  TRACK 65 AUDIO
    TITLE "0:"
    INDEX 01 00:51:54
  TRACK 66 AUDIO
    TITLE "5:cjc137_3983"
    INDEX 01 00:51:62
  TRACK 67 AUDIO
    TITLE "0:"
    INDEX 01 00:53:00
  TRACK 68 AUDIO
    TITLE "4:cjc137_3984"
    INDEX 01 00:54:11
  TRACK 69 AUDIO
    TITLE "0:"
    INDEX 01 00:55:28
  TRACK 70 AUDIO
    TITLE "6:cjc137_3985"
    INDEX 01 00:55:38
  TRACK 71 AUDIO
    TITLE "0:"
    INDEX 01 00:56:49
  TRACK 72 AUDIO
    TITLE "5:cjc137_3986"
    INDEX 01 00:56:57
  TRACK 73 AUDIO
    TITLE "0:"
    INDEX 01 00:58:01
  TRACK 74 AUDIO
    TITLE "4:cjc137_3987"
    INDEX 01 00:59:10
  TRACK 75 AUDIO
    TITLE "0:"
    INDEX 01 01:00:25
  TRACK 76 AUDIO
    TITLE "6:cjc137_3988"
    INDEX 01 01:00:47
  TRACK 77 AUDIO
    TITLE "0:"
    INDEX 01 01:01:54
  TRACK 78 AUDIO
    TITLE "5:cjc137_3989"
    INDEX 01 01:01:64
  TRACK 79 AUDIO
    TITLE "0:"
    INDEX 01 01:03:04
  TRACK 80 AUDIO
    TITLE "4:cjc137_3990"
    INDEX 01 01:04:21
  TRACK 81 AUDIO
    TITLE "0:"
    INDEX 01 01:05:46
  TRACK 82 AUDIO
    TITLE "6:cjc137_3991"
    INDEX 01 01:05:52
  TRACK 83 AUDIO
    TITLE "0:"
    INDEX 01 01:07:10
  TRACK 84 AUDIO
    TITLE "5:cjc137_3992"
    INDEX 01 01:07:19
  TRACK 85 AUDIO
    TITLE "0:"
    INDEX 01 01:08:42
